<svg xmlns="http://www.w3.org/2000/svg" width="32" height="32" id="ecommerce"><g transform="translate(574.004 -1711.362)"><g transform="translate(11)"><ellipse cx="-562.278" cy="1740.083" fill="#01d1ff" rx="2.5" ry="2.501"></ellipse><path fill="#fff" d="M-562.277 1737.583a2.5 2.501 0 0 0-2.5 2.5 2.5 2.501 0 0 0 2.5 2.502 2.5 2.501 0 0 0 .494-.053 2.5 2.501 0 0 1-1.994-2.45 2.5 2.501 0 0 1 2.004-2.448 2.5 2.501 0 0 0-.504-.051z"></path><path fill="#00a5ff" d="M-562.278 1737.583a2.5 2.501 0 0 1 2.5 2.5 2.5 2.501 0 0 1-2.5 2.502 2.5 2.501 0 0 1-.494-.053 2.5 2.501 0 0 0 1.994-2.45 2.5 2.501 0 0 0-2.004-2.449 2.5 2.501 0 0 1 .504-.05z"></path><ellipse cx="-562.278" cy="1740.083" fill="none" stroke="#000" rx="2.778" ry="2.779"></ellipse></g><path fill="#f8e71b" d="M-563.399 1732.862h14.288l3.611-12h-20.761"></path><path fill="#fff" d="m-547.275 1720.862-2.725 9.404c-.169.584-.488 1.096-1.096 1.096h-12.66l.358 1.5h14.287l3.611-12h-1.775z"></path><path fill="#f8d459" d="m-566.262 1720.862 2.864 12h1.503l-2.08-9.404c-.134-.608.26-1.096.881-1.096h15.754c.469 0 .93.277 1.186.674l.654-2.174h-20.762z"></path><path fill="none" stroke="#000" stroke-linecap="round" stroke-linejoin="round" d="M-570.5 1717.871h3.226l3.575 14.991h14.588l.903-3 .903-3 .238-.792m.664-2.208.903-3h-20.26"></path><path fill="none" stroke="#000" stroke-linecap="round" stroke-linejoin="round" d="m-567.274 1717.851 4.675 19.464h11.552"></path><ellipse cx="-562.278" cy="1740.083" fill="#01d1ff" rx="2.5" ry="2.501"></ellipse><path fill="none" stroke="#000" d="M-559 1723.862h12.6m-10.6 3h10m-8 3h7"></path><path style="isolation:auto;mix-blend-mode:normal" fill="#f05542" d="M-557.158 1712.362v1.576a6.34 6.34 0 0 0-1.967.807l-1.107-1.11-1.995 1.995 1.114 1.111a6.34 6.34 0 0 0-.813 1.963h-1.574v1.658h3.775c-.005-.084-.025-.164-.025-.25 0-2.203 1.797-4 4-4 2.203 0 4 1.797 4 4 0 .086-.02.166-.025.25H-548v-1.658h-1.576a6.34 6.34 0 0 0-.807-1.967l1.11-1.107-1.995-1.994-1.11 1.113a6.34 6.34 0 0 0-1.964-.813v-1.574z" color="#000" overflow="visible"></path><path fill="#fff" d="M-562.277 1737.583a2.5 2.501 0 0 0-2.5 2.5 2.5 2.501 0 0 0 2.5 2.502 2.5 2.501 0 0 0 .494-.053 2.5 2.501 0 0 1-1.994-2.45 2.5 2.501 0 0 1 2.004-2.448 2.5 2.501 0 0 0-.504-.051z"></path><path fill="#00a5ff" d="M-562.278 1737.583a2.5 2.501 0 0 1 2.5 2.5 2.5 2.501 0 0 1-2.5 2.502 2.5 2.501 0 0 1-.494-.053 2.5 2.501 0 0 0 1.994-2.45 2.5 2.501 0 0 0-2.004-2.449 2.5 2.501 0 0 1 .504-.05z"></path><ellipse cx="-562.278" cy="1740.083" fill="none" stroke="#000" rx="2.778" ry="2.779"></ellipse><path style="isolation:auto;mix-blend-mode:normal" fill="#fff" d="M-557.158 692v1.576c-.454.102-.886.27-1.305.467l.338.34a6.34 6.34 0 0 1 1.967-.807V692h-1zm-3.074 1.273-1.995 1.995 1.114 1.11a6.34 6.34 0 0 0-.813 1.964h1a6.34 6.34 0 0 1 .813-1.963l-1.114-1.111 1.495-1.495-.5-.5zm8.964 0-.771.774c.224.106.45.208.66.34l.611-.614-.5-.5zm-3.482 2.477c-.171 0-.334.03-.5.05 1.966.25 3.5 1.918 3.5 3.95 0 .086-.02.166-.025.25h1c.005-.084.025-.164.025-.25 0-2.203-1.797-4-4-4zm-8.75 2.592V700h1v-1.658h-1z" color="#000" overflow="visible" transform="translate(0 1020.362)"></path><path style="isolation:auto;mix-blend-mode:normal" fill="none" stroke="#000" stroke-linecap="square" stroke-linejoin="round" d="M-559.75 1720.112c0-2.203 1.797-4 4-4 2.203 0 4 1.797 4 4m3.75.25v-1.658h-1.576a6.34 6.34 0 0 0-.807-1.967l1.11-1.107-1.995-1.994-1.11 1.113a6.34 6.34 0 0 0-1.964-.813v-1.574h-2.816v1.576a6.34 6.34 0 0 0-1.967.807l-1.107-1.11-1.995 1.995 1.114 1.111a6.34 6.34 0 0 0-.813 1.963h-1.574v1.658" color="#000" overflow="visible"></path></g></svg>